<svg xmlns="http://www.w3.org/2000/svg">
  <symbol id="dashboard" viewBox="0 0 24 24"><path d="M4 13h6V4H4v9Zm0 7h6v-5H4v5Zm10 0h6v-9h-6v9Zm0-16v5h6V4h-6Z" fill="none" stroke="currentColor" stroke-width="1.8" stroke-linejoin="round"/></symbol>
  <symbol id="user" viewBox="0 0 24 24"><path d="M12 12a4 4 0 1 0 0-8 4 4 0 0 0 0 8Zm7 8a7 7 0 0 0-14 0" fill="none" stroke="currentColor" stroke-width="1.8" stroke-linecap="round"/></symbol>
  <symbol id="shield" viewBox="0 0 24 24"><path d="M12 3 5 6v5c0 4.6 2.9 8.2 7 10 4.1-1.8 7-5.4 7-10V6l-7-3Z" fill="none" stroke="currentColor" stroke-width="1.8" stroke-linejoin="round"/><path d="m9 12 2 2 4-5" fill="none" stroke="currentColor" stroke-width="1.8" stroke-linecap="round" stroke-linejoin="round"/></symbol>
  <symbol id="devices" viewBox="0 0 24 24"><rect x="3" y="4" width="14" height="11" rx="2" fill="none" stroke="currentColor" stroke-width="1.8"/><path d="M8 20h10m-6-5v5m7-11h2v9h-6v-2" fill="none" stroke="currentColor" stroke-width="1.8" stroke-linecap="round" stroke-linejoin="round"/></symbol>
  <symbol id="grid" viewBox="0 0 24 24"><rect x="4" y="4" width="6" height="6" rx="1" fill="none" stroke="currentColor" stroke-width="1.8"/><rect x="14" y="4" width="6" height="6" rx="1" fill="none" stroke="currentColor" stroke-width="1.8"/><rect x="4" y="14" width="6" height="6" rx="1" fill="none" stroke="currentColor" stroke-width="1.8"/><rect x="14" y="14" width="6" height="6" rx="1" fill="none" stroke="currentColor" stroke-width="1.8"/></symbol>
  <symbol id="activity" viewBox="0 0 24 24"><path d="M3 12h4l2-7 4 14 2-7h6" fill="none" stroke="currentColor" stroke-width="1.8" stroke-linecap="round" stroke-linejoin="round"/></symbol>
  <symbol id="settings" viewBox="0 0 24 24"><circle cx="12" cy="12" r="3" fill="none" stroke="currentColor" stroke-width="1.8"/><path d="M19.4 15a1.7 1.7 0 0 0 .3 1.9l.1.1-2.8 2.8-.1-.1a1.7 1.7 0 0 0-1.9-.3 1.7 1.7 0 0 0-1 1.6v.2h-4V21a1.7 1.7 0 0 0-1-1.6 1.7 1.7 0 0 0-1.9.3l-.1.1L4.2 17l.1-.1a1.7 1.7 0 0 0 .3-1.9A1.7 1.7 0 0 0 3 14H2.8v-4H3a1.7 1.7 0 0 0 1.6-1 1.7 1.7 0 0 0-.3-1.9L4.2 7 7 4.2l.1.1A1.7 1.7 0 0 0 9 4.6 1.7 1.7 0 0 0 10 3V2.8h4V3a1.7 1.7 0 0 0 1 1.6 1.7 1.7 0 0 0 1.9-.3l.1-.1L19.8 7l-.1.1a1.7 1.7 0 0 0-.3 1.9 1.7 1.7 0 0 0 1.6 1h.2v4H21a1.7 1.7 0 0 0-1.6 1Z" fill="none" stroke="currentColor" stroke-width="1.4" stroke-linejoin="round"/></symbol>
  <symbol id="logout" viewBox="0 0 24 24"><path d="M10 5H5v14h5m4-4 4-3-4-3m4 3H9" fill="none" stroke="currentColor" stroke-width="1.8" stroke-linecap="round" stroke-linejoin="round"/></symbol>
  <symbol id="mail" viewBox="0 0 24 24"><rect x="3" y="5" width="18" height="14" rx="2" fill="none" stroke="currentColor" stroke-width="1.8"/><path d="m4 7 8 6 8-6" fill="none" stroke="currentColor" stroke-width="1.8" stroke-linejoin="round"/></symbol>
  <symbol id="alert" viewBox="0 0 24 24"><path d="M12 3 2.8 20h18.4L12 3Z" fill="none" stroke="currentColor" stroke-width="1.8" stroke-linejoin="round"/><path d="M12 9v5m0 3h.01" fill="none" stroke="currentColor" stroke-width="2" stroke-linecap="round"/></symbol>
  <symbol id="check" viewBox="0 0 24 24"><circle cx="12" cy="12" r="9" fill="none" stroke="currentColor" stroke-width="1.8"/><path d="m8 12 2.6 2.6L16.5 9" fill="none" stroke="currentColor" stroke-width="1.8" stroke-linecap="round" stroke-linejoin="round"/></symbol>
  <symbol id="arrow" viewBox="0 0 24 24"><path d="M5 12h14m-5-5 5 5-5 5" fill="none" stroke="currentColor" stroke-width="1.8" stroke-linecap="round" stroke-linejoin="round"/></symbol>
  <symbol id="info" viewBox="0 0 24 24"><circle cx="12" cy="12" r="9" fill="none" stroke="currentColor" stroke-width="1.8"/><path d="M12 11v6m0-9h.01" fill="none" stroke="currentColor" stroke-width="2" stroke-linecap="round"/></symbol>
  <symbol id="menu" viewBox="0 0 24 24"><path d="M4 7h16M4 12h16M4 17h16" fill="none" stroke="currentColor" stroke-width="1.8" stroke-linecap="round"/></symbol>
  <symbol id="sun" viewBox="0 0 24 24"><circle cx="12" cy="12" r="4" fill="none" stroke="currentColor" stroke-width="1.8"/><path d="M12 2v2m0 16v2M4.9 4.9l1.4 1.4m11.4 11.4 1.4 1.4M2 12h2m16 0h2M4.9 19.1l1.4-1.4M17.7 6.3l1.4-1.4" fill="none" stroke="currentColor" stroke-width="1.8" stroke-linecap="round"/></symbol>
  <symbol id="moon" viewBox="0 0 24 24"><path d="M20 15.5A8.5 8.5 0 0 1 8.5 4 8.5 8.5 0 1 0 20 15.5Z" fill="none" stroke="currentColor" stroke-width="1.8" stroke-linejoin="round"/></symbol>
</svg>
